<svg height="480pt" viewBox="0 -5 480 480" width="480pt" xmlns="http://www.w3.org/2000/svg"><path d="m240.886719 469.214844c-47.589844 0-73.277344-120.878906-73.277344-234.605469 0-113.730469 25.6875-234.609375 73.277344-234.609375 47.59375 0 73.28125 120.878906 73.28125 234.609375.097656 35.472656-2.40625 70.90625-7.488281 106.015625l-15.816407-2.402344c4.960938-34.304687 7.402344-68.929687 7.304688-103.589844 0-128.800781-30.191407-218.609374-57.28125-218.609374-27.085938 0-57.277344 89.777343-57.277344 218.609374 0 128.832032 30.191406 218.605469 57.277344 218.605469 10.511719 0 26.402343-16.796875 39.402343-63.902343l15.421876 4.265624c-13.671876 49.453126-32.632813 75.613282-54.824219 75.613282zm0 0" fill="#f7ba61"/><path d="m93.535156 415.191406c-9.054687.515625-17.929687-2.6875-24.574218-8.863281-34.199219-34.199219 35.933593-141.230469 119.277343-224.566406 26.09375-26.230469 54.050781-50.535157 83.648438-72.730469l9.527343 12.800781c-28.96875 21.726563-56.328124 45.523438-81.863281 71.199219-94.648437 94.6875-138.832031 182.402344-119.277343 201.984375 19.550781 19.585937 107.285156-24.625 201.941406-119.28125 39.699218-38.519531 74.15625-82.089844 102.488281-129.597656 23.578125-42.160157 24.136719-65.023438 16.800781-72.367188-7.769531-7.769531-32.199218-6.65625-77.480468 19.71875l-8.023438-13.816406c32.878906-19.144531 76.382812-37.664063 96.800781-17.199219 15.527344 15.535156 10.640625 47.199219-14.152343 91.488282-29.046876 48.785156-64.390626 93.53125-105.121094 133.085937-68.527344 68.539063-153.085938 128.136719-199.992188 128.144531zm0 0" fill="#aae5c8"/><path d="m388.230469 415.191406c-46.894531 0-131.445313-59.597656-200-128.144531-83.34375-83.34375-153.46875-190.375-119.269531-224.574219 15.527343-15.542968 47.199218-10.640625 91.488281 14.144532 48.78125 29.054687 93.527343 64.40625 133.078125 105.144531 36.816406 36.128906 69.453125 76.289062 97.289062 119.71875 22.03125 35.832031 43.726563 83.121093 22 104.847656-6.648437 6.171875-15.527344 9.371094-24.585937 8.863281zm-294.46875-345.558594c-4.867188-.429687-9.707031 1.058594-13.488281 4.152344-19.554688 19.550782 24.621093 107.292969 119.277343 201.949219s182.402344 138.832031 201.953125 119.28125c8-8 6.449219-35.121094-24.320312-85.152344-27.175782-42.371093-59.03125-81.550781-94.96875-116.800781-38.515625-39.699219-82.089844-74.15625-129.597656-102.488281-27.449219-15.351563-46.730469-20.941407-58.855469-20.941407zm0 0" fill="#ea6b65"/><path d="m267.183594 230.992188c0 15.464843-12.535156 28-28 28s-28-12.535157-28-28c0-15.464844 12.535156-28 28-28s28 12.535156 28 28zm0 0" fill="#f7ba61"/><path d="m104 399.433594c0 15.460937-12.535156 28-28 28s-28-12.539063-28-28c0-15.464844 12.535156-28 28-28s28 12.535156 28 28zm0 0" fill="#aae5c8"/><path d="m104 71.433594c0 15.460937-12.535156 28-28 28s-28-12.539063-28-28c0-15.464844 12.535156-28 28-28s28 12.535156 28 28zm0 0" fill="#ea6b65"/><path d="m240 308.855469c-37.695312.121093-75.347656-2.636719-112.625-8.246094l2.488281-15.800781c36.453125 5.480468 73.273438 8.171875 110.136719 8.046875 132 0 224-30.808594 224-58.457031 0-27.644532-92-58.453126-224-58.453126s-224 30.808594-224 58.453126c0 11.753906 19.71875 29.144531 75.0625 42.722656l-3.816406 15.542968c-39.796875-9.769531-87.246094-27.800781-87.246094-58.265624 0-48.359376 123.65625-74.453126 240-74.453126s240 26.09375 240 74.453126c0 48.363281-123.65625 74.457031-240 74.457031zm0 0" fill="#6cbae5"/><path d="m464 199.433594c0 15.460937-12.535156 28-28 28s-28-12.539063-28-28c0-15.464844 12.535156-28 28-28s28 12.535156 28 28zm0 0" fill="#6cbae5"/><path d="m87.246094 292.664062 3.816406-15.542968c-55.34375-13.578125-75.0625-30.96875-75.0625-42.722656 0-16.65625 33.433594-34.453126 88.855469-45.972657 10.289062 14.878907 22.066406 30.308594 35.128906 45.941407-42.074219 50.28125-70.839844 98.402343-78.03125 131.929687-14.972656 6.328125-23.84375 21.90625-21.652344 38.007813 2.191407 16.105468 14.902344 28.746093 31.019531 30.847656 16.117188 2.101562 31.640626-6.859375 37.886719-21.863282 26.179688-7.246093 50.929688-18.898437 73.191407-34.457031 12.265624 52.871094 32 90.398438 58.472656 90.398438 22.191406 0 41.152344-26.160157 54.824218-75.636719l-15.421874-4.265625c-13.015626 47.121094-28.890626 63.902344-39.402344 63.902344-16 0-33.144532-31.453125-44.445313-83.816407 14.398438-10.054687 29.367188-21.453124 44.519531-34.132812 55.199219 46.039062 111.917969 79.925781 147.269532 79.925781 9.0625.503907 17.9375-2.699219 24.585937-8.878906 21.726563-21.726563 0-69.015625-22-104.847656-1.480469-2.402344-3.136719-4.886719-4.703125-7.328125 54.863282-12.441406 93.902344-32.578125 93.902344-59.753906-.28125-8.671876-3.957031-16.890626-10.238281-22.878907 1.441406-3.867187 2.199219-7.957031 2.238281-12.085937-.039062-15.886719-10.484375-29.867188-25.707031-34.40625-15.222657-4.542969-31.621094 1.425781-40.355469 14.691406-6.328125-1.808594-12.953125-3.488281-19.824219-5.0625 4.511719-7.03125 8.796875-13.976562 12.550781-20.695312 24.800782-44.320313 29.679688-75.953126 14.152344-91.488282-20.457031-20.464844-63.960937-1.945312-96.800781 17.199219l7.984375 13.832031c45.28125-26.398437 69.710938-27.488281 77.480469-19.71875 7.335937 7.34375 6.777343 30.207032-16.800781 72.367188-4.511719 8.0625-9.75 16.449218-15.382813 24.96875-18.226563-3.464844-37.824219-6.210938-58.554687-8.082032-8.34375-87.6875-32.277344-163.039062-69.855469-163.039062-26.445313 0-46.117188 37.351562-58.398438 90.023438-22.597656-15.871094-47.8125-27.648438-74.488281-34.792969-7.199219-14.242188-22.933594-22.023438-38.625-19.105469s-27.574219 15.839844-29.171875 31.71875 7.472656 30.90625 22.269531 36.890625c7.214844 24.808594 18.347656 48.304687 32.976563 69.601563-55.671875 12.382812-95.449219 32.640624-95.449219 60.0625 0 30.464843 47.449219 48.496093 87.246094 58.265624zm34.738281-107.480468c14.679687-2.503906 30.617187-4.597656 47.664063-6.144532-.566407 7.761719-1.019532 15.570313-1.359376 23.425782-6.105468 6.535156-12.066406 13.078125-17.769531 19.605468-10.441406-12.542968-19.992187-24.902343-28.535156-36.886718zm160.230469 7.886718c5.292968 5.28125 10.46875 10.613282 15.539062 16 .265625 8.335938.402344 16.855469.414063 25.554688 0 8.421875-.167969 16.800781-.441407 25.183594-5.054687 5.332031-10.226562 10.648437-15.511718 15.945312-5.726563 5.726563-11.511719 11.277344-17.3125 16.742188-8.125.238281-16.425782.367187-24.902344.375-7.792969 0-15.535156-.191406-23.265625-.421875-5.695313-5.386719-11.421875-10.953125-17.183594-16.695313-5.320312-5.320312-10.472656-10.664062-15.542969-16-.253906-8.195312-.390624-16.566406-.398437-25.113281 0-8.695313.136719-17.203125.414063-25.527344 5.074218-5.359375 10.222656-10.707031 15.527343-16 5.722657-5.722656 11.546875-11.296875 17.386719-16.800781 7.539062-.207031 15.226562-.316406 23.0625-.328125 8.367188 0 16.6875.160156 24.953125.421875 5.773437 5.425781 11.550781 10.945312 17.261719 16.664062zm6.992187-15.542968c2.335938.152344 4.617188.34375 6.921875.511718.167969 2.265626.3125 4.5625.464844 6.855469-1.035156-1.046875-2.027344-2.101562-3.066406-3.132812-1.429688-1.441407-2.878906-2.816407-4.320313-4.234375zm24.257813 88.800781c6.09375-6.527344 11.996094-13.0625 17.703125-19.609375 10.265625 12.359375 19.800781 24.640625 28.34375 36.625-14.542969 2.527344-30.398438 4.632812-47.28125 6.214844.570312-7.621094.914062-15.398438 1.234375-23.207032zm-17.417969 24.550781c-2.292969.167969-4.597656.320313-6.933594.464844 1.472657-1.449219 2.949219-2.855469 4.414063-4.320312 1.023437-1.023438 1.984375-2.054688 2.992187-3.070313-.152343 2.34375-.296875 4.65625-.472656 6.949219zm17.984375-48.800781c0-2.492187.136719-4.972656.136719-7.46875s0-5.136719-.054688-7.707031c2.222657 2.496094 4.429688 4.992187 6.597657 7.488281-2.230469 2.570313-4.390626 5.128906-6.679688 7.6875zm-66.96875 66.730469c-2.070312 1.832031-4.132812 3.632812-6.207031 5.421875-2.121094-1.839844-4.207031-3.574219-6.34375-5.476563 1.839843 0 3.648437.101563 5.488281.101563 2.351562 0 4.703125-.03125 7.0625-.046875zm-54.445312-17.480469c-2.320313-.144531-4.6875-.222656-6.992188-.382813-.167969-2.328124-.320312-4.6875-.472656-7.050781 1.039062 1.050781 2.039062 2.105469 3.085937 3.152344 1.441407 1.441406 2.960938 2.847656 4.378907 4.28125zm-24.953126-49.367187c-2.238281-2.511719-4.449218-5.019532-6.625-7.519532 2.175782-2.511718 4.386719-5.027344 6.625-7.539062 0 2.570312-.054687 5.136718-.054687 7.707031 0 2.566406.03125 4.894531.054687 7.351563zm72.335938-82.015626c-1.726562 0-3.464844 0-5.199219 0 2.023438-1.792968 4-3.664062 6.046875-5.425781 2.089844 1.816407 4.183594 3.632813 6.273438 5.488281-2.386719.023438-4.722656-.0625-7.121094-.0625zm-29.6875.582032c-7.789062.289062-15.542969.695312-23.265625 1.214844 1.601563-16.101563 3.632813-31.199219 6.089844-45.046876 11.527343 8.273438 23.390625 17.464844 35.382812 27.410157-6.089843 5.328125-12.160156 10.800781-18.207031 16.421875zm-17.464844 16.800781c-1.527344 1.503906-3.09375 2.9375-4.609375 4.457031-1.039062 1.03125-2.03125 2.078125-3.054687 3.117188.152344-2.398438.304687-4.796875.472656-7.101563 2.390625-.183593 4.742188-.351562 7.191406-.496093zm-116.847656 242.105469c-11.046875 0-20-8.957032-20-20 0-11.046875 8.953125-20 20-20s20 8.953125 20 20c0 11.042968-8.953125 20-20 20zm35.679688-23.203125c-1.546876-17.335938-15.335938-31.050781-32.679688-32.511719 8.503906-30.0625 34.824219-72.640625 71.585938-116.964844 5.6875 6.511719 11.605468 13.03125 17.6875 19.542969.320312 7.792969.761718 15.539063 1.328124 23.246094-13.699218-1.261719-27.113281-2.765625-39.738281-4.75l-2.488281 15.800781c13.832031 2.175781 28.546875 3.8125 43.585938 5.140625 1.871093 19.59375 4.511718 38.554687 7.902343 56.226563-20.589843 14.65625-43.230469 26.203124-67.183593 34.269531zm81.390624-44.085938c-2.453124-13.898437-4.503906-29-6.0625-45.121093 7.726563.511718 15.496094.984374 23.382813 1.273437 6 5.597656 12 11.039063 18.152344 16.367187-12.023438 9.96875-23.917969 19.199219-35.472657 27.496094zm184.113282-42.3125c30.769531 50.03125 32.320312 77.144531 24.320312 85.152344-15.792968 15.777344-76-9.992187-148.328125-70.222656 6.113281-5.335938 12.230469-10.890625 18.34375-16.578125 7.734375-.3125 15.433594-.734375 23.105469-1.261719-1.050781 10.726563-2.25 21.261719-3.761719 31.285156l15.816407 2.402344c1.6875-11.203125 2.992187-22.984375 4.121093-35 20.375-1.867187 40.128907-4.546875 58.519531-8 2.734376 4.132813 5.390626 8.222656 7.863282 12.222656zm58.816406-130.398437c11.046875 0 20 8.953125 20 20 0 11.042968-8.953125 20-20 20s-20-8.957032-20-20c0-11.046875 8.953125-20 20-20zm-35.535156 15.382812c-.253906 1.527344-.40625 3.070313-.464844 4.617188-.039062 14.371094 8.5 27.386718 21.703125 33.070312s28.523437 2.941406 38.9375-6.96875c2.023437 2.527344 3.199219 5.628906 3.359375 8.863282 0 16.503906-32.800781 34.128906-87.304688 45.664062-10.296874-14.855469-22.039062-30.175781-34.953124-45.597656 12.898437-15.402344 24.570312-30.664063 34.84375-45.488282 8.410156 1.78125 16.367187 3.726563 23.878906 5.839844zm-41.128906-9.167968c-8.511719 11.9375-17.902344 24.128906-28.144532 36.449218-5.726562-6.550781-11.628906-13.082031-17.703125-19.59375-.324219-7.761718-.769531-15.480468-1.335937-23.160156 16.527344 1.578125 32.3125 3.703125 47.183594 6.304688zm-118.449219-169.648438c21.601562 0 45.203125 57.238281 53.847656 145.847656-7.621094-.53125-15.351563-.945312-23.199219-1.230468-6.085937-5.65625-12.175781-11.203126-18.253906-16.496094 9.445312-7.855469 18.871094-15.417969 28.109375-22.265625l-9.503906-12.824219c-10.152344 7.519531-20.511719 15.871094-30.894531 24.570312-15.136719-12.707031-30.054688-24.089843-44.472657-34.167968 11.304688-52.121094 28.375-83.433594 44.367188-83.433594zm-164.886719 35.433594c11.046875 0 20 8.953125 20 20 0 11.042968-8.953125 20-20 20s-20-8.957032-20-20c0-11.046875 8.953125-20 20-20zm3.574219 55.636718c17.882812-1.769531 31.691406-16.496093 32.304687-34.453124 23.90625 8.085937 46.496094 19.625 67.058594 34.253906-3.402344 17.640625-6.058594 36.570312-7.929688 56.136718-20.472656 1.832032-40.34375 4.464844-58.855468 7.894532-13.777344-19.65625-24.742188-41.140625-32.578125-63.832032zm0 0"/><path d="m203.199219 230.992188c0 19.882812 16.117187 36 36 36 19.882812 0 36-16.117188 36-36 0-19.882813-16.117188-36-36-36-19.882813 0-36 16.117187-36 36zm56 0c0 11.046874-8.953125 20-20 20-11.042969 0-20-8.953126-20-20 0-11.046876 8.957031-20 20-20 11.046875 0 20 8.953124 20 20zm0 0"/></svg>